<mxfile host="Electron" modified="2023-08-31T10:31:36.268Z" agent="Mozilla/5.0 (Macintosh; Intel Mac OS X 10_15_7) AppleWebKit/537.36 (KHTML, like Gecko) draw.io/21.2.8 Chrome/112.0.5615.165 Electron/24.2.0 Safari/537.36" etag="fJ4vv8t54gOrnJMspNGL" version="21.2.8" type="device">
  <diagram name="Page-1" id="-0mjjQGVLLlfhMFcUAbm">
    <mxGraphModel dx="892" dy="597" grid="1" gridSize="10" guides="1" tooltips="1" connect="1" arrows="1" fold="1" page="1" pageScale="1" pageWidth="850" pageHeight="1100" math="0" shadow="0">
      <root>
        <mxCell id="0" />
        <mxCell id="1" parent="0" />
        <mxCell id="689Fn-4jaiqah-bm809F-1" value="Context" style="swimlane;fontStyle=1;childLayout=stackLayout;horizontal=1;startSize=30;fillColor=none;horizontalStack=0;resizeParent=1;resizeParentMax=0;resizeLast=0;collapsible=0;marginBottom=0;fontSize=12;swimlaneHead=1;swimlaneBody=1;connectable=1;allowArrows=1;dropTarget=1;align=left;spacingLeft=5;" parent="1" vertex="1">
          <mxGeometry x="90" y="210" width="122" height="60" as="geometry">
            <mxRectangle x="245" y="370" width="90" height="26" as="alternateBounds" />
          </mxGeometry>
        </mxCell>
        <mxCell id="689Fn-4jaiqah-bm809F-2" value="ContextInterface()" style="text;strokeColor=none;fillColor=none;align=left;verticalAlign=middle;spacingLeft=5;spacingRight=4;overflow=hidden;rotatable=0;points=[[0,0.5],[1,0.5]];portConstraint=eastwest;fontSize=12;fontStyle=0;connectable=0;" parent="689Fn-4jaiqah-bm809F-1" vertex="1">
          <mxGeometry y="30" width="122" height="30" as="geometry" />
        </mxCell>
        <mxCell id="689Fn-4jaiqah-bm809F-4" value="Strategy" style="swimlane;fontStyle=3;childLayout=stackLayout;horizontal=1;startSize=30;fillColor=none;horizontalStack=0;resizeParent=1;resizeParentMax=0;resizeLast=0;collapsible=0;marginBottom=0;fontSize=12;swimlaneHead=1;swimlaneBody=1;connectable=1;allowArrows=1;dropTarget=1;align=left;spacingLeft=5;" parent="1" vertex="1">
          <mxGeometry x="369" y="210" width="122" height="60" as="geometry">
            <mxRectangle x="245" y="370" width="90" height="26" as="alternateBounds" />
          </mxGeometry>
        </mxCell>
        <mxCell id="689Fn-4jaiqah-bm809F-5" value="AlgorithmInterface()" style="text;strokeColor=none;fillColor=none;align=left;verticalAlign=middle;spacingLeft=5;spacingRight=4;overflow=hidden;rotatable=0;points=[[0,0.5],[1,0.5]];portConstraint=eastwest;fontSize=12;fontStyle=2;connectable=0;" parent="689Fn-4jaiqah-bm809F-4" vertex="1">
          <mxGeometry y="30" width="122" height="30" as="geometry" />
        </mxCell>
        <mxCell id="689Fn-4jaiqah-bm809F-9" value="ConcreteStrategyA" style="swimlane;fontStyle=1;childLayout=stackLayout;horizontal=1;startSize=30;fillColor=none;horizontalStack=0;resizeParent=1;resizeParentMax=0;resizeLast=0;collapsible=0;marginBottom=0;fontSize=12;swimlaneHead=1;swimlaneBody=1;connectable=1;allowArrows=1;dropTarget=1;align=left;spacingLeft=5;" parent="1" vertex="1">
          <mxGeometry x="210" y="330" width="120" height="60" as="geometry">
            <mxRectangle x="245" y="370" width="90" height="26" as="alternateBounds" />
          </mxGeometry>
        </mxCell>
        <mxCell id="689Fn-4jaiqah-bm809F-10" value="AlgorithmInterface()" style="text;strokeColor=none;fillColor=none;align=left;verticalAlign=middle;spacingLeft=5;spacingRight=4;overflow=hidden;rotatable=0;points=[[0,0.5],[1,0.5]];portConstraint=eastwest;fontSize=12;fontStyle=0;connectable=0;" parent="689Fn-4jaiqah-bm809F-9" vertex="1">
          <mxGeometry y="30" width="120" height="30" as="geometry" />
        </mxCell>
        <mxCell id="689Fn-4jaiqah-bm809F-11" value="ConcreteStrategyB" style="swimlane;fontStyle=1;childLayout=stackLayout;horizontal=1;startSize=30;fillColor=none;horizontalStack=0;resizeParent=1;resizeParentMax=0;resizeLast=0;collapsible=0;marginBottom=0;fontSize=12;swimlaneHead=1;swimlaneBody=1;connectable=1;allowArrows=1;dropTarget=1;align=left;spacingLeft=5;" parent="1" vertex="1">
          <mxGeometry x="370" y="330" width="120" height="60" as="geometry">
            <mxRectangle x="245" y="370" width="90" height="26" as="alternateBounds" />
          </mxGeometry>
        </mxCell>
        <mxCell id="689Fn-4jaiqah-bm809F-12" value="AlgorithmInterface()" style="text;strokeColor=none;fillColor=none;align=left;verticalAlign=middle;spacingLeft=5;spacingRight=4;overflow=hidden;rotatable=0;points=[[0,0.5],[1,0.5]];portConstraint=eastwest;fontSize=12;fontStyle=0;connectable=0;" parent="689Fn-4jaiqah-bm809F-11" vertex="1">
          <mxGeometry y="30" width="120" height="30" as="geometry" />
        </mxCell>
        <mxCell id="689Fn-4jaiqah-bm809F-13" value="ConcreteStrategyC" style="swimlane;fontStyle=1;childLayout=stackLayout;horizontal=1;startSize=30;fillColor=none;horizontalStack=0;resizeParent=1;resizeParentMax=0;resizeLast=0;collapsible=0;marginBottom=0;fontSize=12;swimlaneHead=1;swimlaneBody=1;connectable=1;allowArrows=1;dropTarget=1;align=left;spacingLeft=5;" parent="1" vertex="1">
          <mxGeometry x="530" y="330" width="120" height="60" as="geometry">
            <mxRectangle x="245" y="370" width="90" height="26" as="alternateBounds" />
          </mxGeometry>
        </mxCell>
        <mxCell id="689Fn-4jaiqah-bm809F-14" value="AlgorithmInterface()" style="text;strokeColor=none;fillColor=none;align=left;verticalAlign=middle;spacingLeft=5;spacingRight=4;overflow=hidden;rotatable=0;points=[[0,0.5],[1,0.5]];portConstraint=eastwest;fontSize=12;fontStyle=0;connectable=0;" parent="689Fn-4jaiqah-bm809F-13" vertex="1">
          <mxGeometry y="30" width="120" height="30" as="geometry" />
        </mxCell>
        <mxCell id="689Fn-4jaiqah-bm809F-16" value="" style="edgeStyle=orthogonalEdgeStyle;rounded=0;orthogonalLoop=1;jettySize=auto;html=1;fontSize=12;startSize=30;endArrow=block;endFill=0;exitX=0.5;exitY=0;exitDx=0;exitDy=0;entryX=0.5;entryY=1;entryDx=0;entryDy=0;" parent="1" source="689Fn-4jaiqah-bm809F-11" target="689Fn-4jaiqah-bm809F-4" edge="1">
          <mxGeometry relative="1" as="geometry">
            <mxPoint x="280" y="340" as="sourcePoint" />
            <mxPoint x="460" y="280" as="targetPoint" />
          </mxGeometry>
        </mxCell>
        <mxCell id="689Fn-4jaiqah-bm809F-17" value="" style="edgeStyle=orthogonalEdgeStyle;rounded=0;orthogonalLoop=1;jettySize=auto;html=1;fontSize=12;startSize=30;endArrow=block;endFill=0;exitX=0.5;exitY=0;exitDx=0;exitDy=0;entryX=0.5;entryY=1;entryDx=0;entryDy=0;" parent="1" source="689Fn-4jaiqah-bm809F-13" target="689Fn-4jaiqah-bm809F-4" edge="1">
          <mxGeometry relative="1" as="geometry">
            <mxPoint x="440" y="340" as="sourcePoint" />
            <mxPoint x="550" y="270" as="targetPoint" />
          </mxGeometry>
        </mxCell>
        <mxCell id="689Fn-4jaiqah-bm809F-18" value="" style="edgeStyle=orthogonalEdgeStyle;rounded=0;orthogonalLoop=1;jettySize=auto;html=1;fontSize=12;startSize=30;endArrow=block;endFill=0;exitX=0.25;exitY=0;exitDx=0;exitDy=0;entryX=0.5;entryY=1;entryDx=0;entryDy=0;" parent="1" source="689Fn-4jaiqah-bm809F-9" target="689Fn-4jaiqah-bm809F-4" edge="1">
          <mxGeometry relative="1" as="geometry">
            <mxPoint x="370" y="320" as="sourcePoint" />
            <mxPoint x="430" y="270" as="targetPoint" />
          </mxGeometry>
        </mxCell>
        <mxCell id="689Fn-4jaiqah-bm809F-19" value="" style="rounded=0;orthogonalLoop=1;jettySize=auto;html=1;fontSize=12;startSize=8;endArrow=blockThin;endFill=1;startArrow=diamondThin;startFill=0;entryX=0;entryY=0.25;entryDx=0;entryDy=0;exitX=1;exitY=0.25;exitDx=0;exitDy=0;" parent="1" source="689Fn-4jaiqah-bm809F-1" target="689Fn-4jaiqah-bm809F-4" edge="1">
          <mxGeometry x="-0.7371" y="5" relative="1" as="geometry">
            <mxPoint x="230" y="210" as="sourcePoint" />
            <mxPoint x="399.9999999999874" y="235" as="targetPoint" />
            <mxPoint as="offset" />
          </mxGeometry>
        </mxCell>
        <mxCell id="689Fn-4jaiqah-bm809F-22" value="strategy" style="edgeLabel;html=1;align=center;verticalAlign=middle;resizable=0;points=[];" parent="689Fn-4jaiqah-bm809F-19" vertex="1" connectable="0">
          <mxGeometry x="-0.795" y="1" relative="1" as="geometry">
            <mxPoint x="8" y="-10" as="offset" />
          </mxGeometry>
        </mxCell>
      </root>
    </mxGraphModel>
  </diagram>
</mxfile>
